<?xml version="1.0" encoding="UTF-8"?><svg id="Layer_1" xmlns="http://www.w3.org/2000/svg" viewBox="0 0 186.3 93.7"><defs><style>.cls-1{isolation:isolate;}.cls-2{fill:#e0617e;}.cls-2,.cls-3,.cls-4,.cls-5{stroke-width:0px;}.cls-3{fill:#c2dc7e;}.cls-4{fill:#327585;}.cls-5{fill:#f0732f;}</style></defs><g class="cls-1"><path class="cls-4" d="M25.65,14.9c0,2.9-1.8,5.8-5.1,6.8,2.9,1.3,4.4,3.9,4.4,6.6s-1.6,5.6-4.8,7c-1.2.5-2.5.8-4,.8-.4,0-.8,0-2.1-.1l-12.8-1.4L3.95,6.1l13.2,1.2c2.5.2,4,.8,5.2,1.6,2.2,1.5,3.3,3.7,3.3,6ZM13.55,30.3c1.1,0,1.9-.2,2.5-.7.8-.6,1.2-1.6,1.2-2.5,0-.8-.4-1.7-1.1-2.3-.6-.5-1.4-.8-2.5-1l-4-.4-.6,6.5,2.9.3,1.6.1ZM14.65,18.8c.7,0,1.4-.2,2-.6.9-.6,1.4-1.6,1.4-2.7,0-.9-.4-1.8-1.3-2.4-.5-.3-1.2-.6-2.4-.7l-3.5-.2-.6,6.2,3.8.4h.6Z"/></g><g class="cls-1"><path class="cls-2" d="M38.85,28.5h-2.6l-.3,9.4h-7.4l1-28.7,12,.4c6.9.2,10.2,4.8,10.2,9.2,0,4.1-2.6,7.2-5.8,8.6l7.5,11.4-8.6-.3-6-10ZM40.25,22.9c2.6,0,3.8-1.9,3.8-3.9,0-1.8-1-3.7-3.6-3.8h-3.7s-.3,7.7-.3,7.7h3.8Z"/></g><g class="cls-1"><path class="cls-3" d="M55.45,38.4l1.3-28.7,7.4.4-1.3,28.6-7.4-.3Z"/></g><g class="cls-1"><path class="cls-5" d="M78.65,37.5c-5,0-9.9-2.6-13.4-6.6l4.6-4.4c2,2.2,5.1,4.8,8.4,4.8,1.2,0,2.6-.5,2.6-2,0-.8-.5-1.7-1.8-2.4-.8-.5-1.7-1-2.6-1.5l-1.8-1c-3.4-1.9-5.8-3.9-5.8-7.8,0-5.2,4-9,10-9,4.2,0,8.5,1.8,11.5,5.4l-4.6,4.6c-1.8-1.8-4.4-4-7.2-4-1.2,0-2.6.7-2.6,2,0,.7.5,1.6,1.7,2.3,1,.6,2,1.1,3.1,1.8l2,1.1c3.2,1.8,5.9,4,5.9,7.6,0,5.3-4.2,9.1-10,9.1Z"/></g><g class="cls-1"><path class="cls-4" d="M115.25,14.7l-8.1-.3-.9,22.2-7.4-.3.9-22.2-8.1-.4.2-6.4,23.6.9-.2,6.5Z"/></g><g class="cls-1"><path class="cls-2" d="M135.65,37.9l-18.4-1.2,1.8-28.7,7.4.5-1.3,22.2,11,.6-.5,6.6Z"/></g><g class="cls-1"><path class="cls-3" d="M158.65,38.3l-20.3-1,1.3-28.6,19.9.9-.3,6-12.5-.6-.2,5.4,10.7.4-.3,6-10.7-.5-.2,5.3,12.8.6-.2,6.1Z"/></g><g class="cls-1"><path class="cls-5" d="M173.95,37.5c-5,0-9.9-2.6-13.4-6.6l4.6-4.4c2,2.2,5.1,4.8,8.4,4.8,1.2,0,2.6-.5,2.6-2,0-.8-.5-1.7-1.8-2.4-.8-.5-1.7-1-2.6-1.5l-1.8-1c-3.4-1.9-5.8-3.9-5.8-7.8,0-5.2,4-9,10-9,4.2,0,8.5,1.8,11.5,5.4l-4.6,4.6c-1.8-1.8-4.4-4-7.2-4-1.2,0-2.6.7-2.6,2,0,.7.5,1.6,1.7,2.3,1,.6,2,1.1,3.1,1.8l2,1.1c3.2,1.8,5.9,4,5.9,7.6,0,5.3-4.2,9.1-10,9.1Z"/></g><g class="cls-1"><path class="cls-4" d="M27.45,87.6c-3,0-6.3-1.4-8.9-3.5-2.1,1-4.2,1.5-6.5,1.5-4.8,0-11.4-2.5-11.4-8.6,0-4.3,2.7-6.7,7.1-8.4-.8-1.8-1.2-3.3-1.2-4.8,0-4.6,3.3-7.5,8.6-7.5,4.2,0,9.2,2.5,9.2,7.1s-4.3,6.8-8.2,7.9c1,1.6,2.2,3.2,3.5,5,1.4-1.8,2.6-3.6,3.4-5.3l6.6.8c-1.6,2.9-3.6,5.8-6,8.5,1.7,1,3.6,1.6,5.7,1.9l-.6,5.2c-.4.1-.9.2-1.3.2ZM9.95,73c-1.1.7-2,1.9-2,3.5,0,2.5,2.4,3.7,4.8,3.7.6,0,1.3-.1,2-.3-1.7-2.3-3.3-4.4-4.8-6.9ZM18.25,63.4c0-1.2-1.1-2.1-2.4-2.1-1.4,0-2.4,1.1-2.4,2.3,0,1,.3,2.1.9,3.4,1.6-.5,3.9-1.4,3.9-3.6Z"/></g><g class="cls-1"><path class="cls-2" d="M52.05,72.5c0,4.2,2,7.7,6.5,7.7,2.6,0,4.7-1.6,5.7-4.2l7.5.6c-1.5,6.4-6.7,9.8-12.9,9.8-8.2,0-14.8-5.8-14.8-14.6,0-7.6,5.8-15.1,14.4-15.1,7.1,0,13.1,4.4,14,12.2l-7.5-.7c-.6-3-2.9-5.2-6.1-5.2-4.9.1-6.8,5.1-6.8,9.5Z"/></g><g class="cls-1"><path class="cls-3" d="M93.25,85.9l-18.4-1.1,1.8-28.7,7.4.5-1.3,22.2,11,.6-.5,6.5Z"/></g><g class="cls-1"><path class="cls-5" d="M115.55,78.8l-10.3-.7-2.6,6.2-7.6-.5,12.4-28,9.2.6,8.6,29.4-8.1-.6-1.6-6.4ZM107.45,72.9l6.7.5-2.6-10.2-4.1,9.7Z"/></g><g class="cls-1"><path class="cls-4" d="M151.15,58l-11.5,16.7-.6,11.4-7.5-.4.6-11.4-9.4-17.8,8.7.4,5.2,10.5,6.2-9.9,8.3.5Z"/></g></svg>