<?xml version="1.0" encoding="utf-8"?>
<!-- Generator: Adobe Illustrator 28.1.0, SVG Export Plug-In . SVG Version: 6.00 Build 0)  -->
<svg version="1.1" id="Layer_1" xmlns="http://www.w3.org/2000/svg" xmlns:xlink="http://www.w3.org/1999/xlink" x="0px" y="0px"
	 viewBox="0 0 186.3 93.7" style="enable-background:new 0 0 186.3 93.7;" xml:space="preserve">
<style type="text/css">
	.st0{enable-background:new    ;}
	.st1{fill:#327585;}
	.st2{fill:#E0617E;}
	.st3{fill:#C2DC7E;}
	.st4{fill:#F0732F;}
</style>
<g class="st0">
	<path class="st1" d="M26.4,12.7c0,2.9-1.8,5.8-5.1,6.8c2.9,1.3,4.4,3.9,4.4,6.6c0,2.8-1.6,5.6-4.8,7c-1.2,0.5-2.5,0.8-4,0.8
		c-0.4,0-0.8,0-2.1-0.1L2,32.4L4.7,3.9l13.2,1.2c2.5,0.2,4,0.8,5.2,1.6C25.3,8.2,26.4,10.4,26.4,12.7z M14.3,28.1
		c1.1,0,1.9-0.2,2.5-0.7c0.8-0.6,1.2-1.6,1.2-2.5c0-0.8-0.4-1.7-1.1-2.3c-0.6-0.5-1.4-0.8-2.5-1l-4-0.4l-0.6,6.5l2.9,0.3L14.3,28.1z
		 M15.4,16.6c0.7,0,1.4-0.2,2-0.6c0.9-0.6,1.4-1.6,1.4-2.7c0-0.9-0.4-1.8-1.3-2.4c-0.5-0.3-1.2-0.6-2.4-0.7L11.6,10L11,16.2l3.8,0.4
		C14.9,16.6,15.1,16.6,15.4,16.6z"/>
</g>
<g class="st0">
	<path class="st2" d="M39.6,26.3H37l-0.3,9.4h-7.4l1-28.7l12,0.4c6.9,0.2,10.2,4.8,10.2,9.2c0,4.1-2.6,7.2-5.8,8.6l7.5,11.4
		l-8.6-0.3L39.6,26.3z M41,20.7c2.6,0,3.8-1.9,3.8-3.9c0-1.8-1-3.7-3.6-3.8L37.5,13l-0.3,7.7C38.6,20.7,39.6,20.7,41,20.7z"/>
</g>
<g class="st0">
	<path class="st3" d="M56.2,36.2l1.3-28.7l7.4,0.4l-1.3,28.6L56.2,36.2z"/>
</g>
<g class="st0">
	<path class="st4" d="M79.4,35.3c-5,0-9.9-2.6-13.4-6.6l4.6-4.4c2,2.2,5.1,4.8,8.4,4.8c1.2,0,2.6-0.5,2.6-2c0-0.8-0.5-1.7-1.8-2.4
		c-0.8-0.5-1.7-1-2.6-1.5l-1.8-1c-3.4-1.9-5.8-3.9-5.8-7.8c0-5.2,4-9,10-9c4.2,0,8.5,1.8,11.5,5.4l-4.6,4.6c-1.8-1.8-4.4-4-7.2-4
		c-1.2,0-2.6,0.7-2.6,2c0,0.7,0.5,1.6,1.7,2.3c1,0.6,2,1.1,3.1,1.8l2,1.1c3.2,1.8,5.9,4,5.9,7.6C89.4,31.5,85.2,35.3,79.4,35.3z"/>
</g>
<g class="st0">
	<path class="st1" d="M116,12.5l-8.1-0.3L107,34.4l-7.4-0.3l0.9-22.2l-8.1-0.4l0.2-6.4l23.6,0.9L116,12.5z"/>
</g>
<g class="st0">
	<path class="st2" d="M136.4,35.7L118,34.5l1.8-28.7l7.4,0.5l-1.3,22.2l11,0.6L136.4,35.7z"/>
</g>
<g class="st0">
	<path class="st3" d="M159.4,36.1l-20.3-1l1.3-28.6l19.9,0.9l-0.3,6l-12.5-0.6l-0.2,5.4l10.7,0.4l-0.3,6L147,24.1l-0.2,5.3l12.8,0.6
		L159.4,36.1z"/>
</g>
<g class="st0">
	<path class="st4" d="M174.7,35.3c-5,0-9.9-2.6-13.4-6.6l4.6-4.4c2,2.2,5.1,4.8,8.4,4.8c1.2,0,2.6-0.5,2.6-2c0-0.8-0.5-1.7-1.8-2.4
		c-0.8-0.5-1.7-1-2.6-1.5l-1.8-1c-3.4-1.9-5.8-3.9-5.8-7.8c0-5.2,4-9,10-9c4.2,0,8.5,1.8,11.5,5.4l-4.6,4.6c-1.8-1.8-4.4-4-7.2-4
		c-1.2,0-2.6,0.7-2.6,2c0,0.7,0.5,1.6,1.7,2.3c1,0.6,2,1.1,3.1,1.8l2,1.1c3.2,1.8,5.9,4,5.9,7.6C184.7,31.5,180.5,35.3,174.7,35.3z"
		/>
</g>
<g class="st0">
	<path class="st1" d="M28.2,85.4c-3,0-6.3-1.4-8.9-3.5c-2.1,1-4.2,1.5-6.5,1.5c-4.8,0-11.4-2.5-11.4-8.6c0-4.3,2.7-6.7,7.1-8.4
		c-0.8-1.8-1.2-3.3-1.2-4.8c0-4.6,3.3-7.5,8.6-7.5c4.2,0,9.2,2.5,9.2,7.1c0,4.6-4.3,6.8-8.2,7.9c1,1.6,2.2,3.2,3.5,5
		c1.4-1.8,2.6-3.6,3.4-5.3l6.6,0.8c-1.6,2.9-3.6,5.8-6,8.5c1.7,1,3.6,1.6,5.7,1.9l-0.6,5.2C29.1,85.3,28.6,85.4,28.2,85.4z
		 M10.7,70.8c-1.1,0.7-2,1.9-2,3.5c0,2.5,2.4,3.7,4.8,3.7c0.6,0,1.3-0.1,2-0.3C13.8,75.4,12.2,73.3,10.7,70.8z M19,61.2
		c0-1.2-1.1-2.1-2.4-2.1c-1.4,0-2.4,1.1-2.4,2.3c0,1,0.3,2.1,0.9,3.4C16.7,64.3,19,63.4,19,61.2z"/>
</g>
<g class="st0">
	<path class="st2" d="M52.8,70.3c0,4.2,2,7.7,6.5,7.7c2.6,0,4.7-1.6,5.7-4.2l7.5,0.6c-1.5,6.4-6.7,9.8-12.9,9.8
		c-8.2,0-14.8-5.8-14.8-14.6c0-7.6,5.8-15.1,14.4-15.1c7.1,0,13.1,4.4,14,12.2l-7.5-0.7c-0.6-3-2.9-5.2-6.1-5.2
		C54.7,60.9,52.8,65.9,52.8,70.3z"/>
</g>
<g class="st0">
	<path class="st3" d="M94,83.7l-18.4-1.1l1.8-28.7l7.4,0.5l-1.3,22.2l11,0.6L94,83.7z"/>
</g>
<g class="st0">
	<path class="st4" d="M116.3,76.6L106,75.9l-2.6,6.2l-7.6-0.5l12.4-28l9.2,0.6l8.6,29.4l-8.1-0.6L116.3,76.6z M108.2,70.7l6.7,0.5
		L112.3,61L108.2,70.7z"/>
</g>
<g class="st0">
	<path class="st1" d="M151.9,55.8l-11.5,16.7l-0.6,11.4l-7.5-0.4l0.6-11.4l-9.4-17.8l8.7,0.4l5.2,10.5l6.2-9.9L151.9,55.8z"/>
</g>
</svg>
